# xmcd CD database file
#
# Track frame offsets:
#	150
#	18588
#	50093
#	79306
#	104447
#	132016
#	155822
#	178945
#	195522
#	227000
#	240644
#
# Disc length: 3461 seconds
#
# Revision: 0
# Processed by: cddbd v1.5.2PL0 Copyright (c) Steve Scherf et al.
# Submitted via: CDex 1.51
#
DISCID=940d830b
DTITLE=Yaron Herman Trio - Song Of The Degrees
DYEAR=2019
DGENRE=Jazz
TTITLE0=Our Love
TTITLE1=Kinship
TTITLE2=Song Of The Degrees
TTITLE3=Still Awake
TTITLE4=Upside Down
TTITLE5=Travelling Light
TTITLE6=The Hero With A Thousand Faces
TTITLE7=From The Sun
TTITLE8=Shadow Walk
TTITLE9=Crazy Cat
TTITLE10=Just Being
EXTD=YEAR: 2019
EXTT0=
EXTT1=
EXTT2=
EXTT3=
EXTT4=
EXTT5=
EXTT6=
EXTT7=
EXTT8=
EXTT9=
EXTT10=
PLAYORDER=
